<mxfile host="www.draw.io" modified="2019-12-13T01:30:55.558Z" agent="Mozilla/5.0 (Windows NT 10.0; Win64; x64) AppleWebKit/537.36 (KHTML, like Gecko) Chrome/79.0.3945.79 Safari/537.36" etag="jqGaYBTBr_eg2v5gz7hT" version="12.4.1" type="github" pages="1">
  <diagram id="_We5dEdMrlxPzOkpL0Iy" name="Page-1">
    <mxGraphModel dx="910" dy="523" grid="1" gridSize="10" guides="1" tooltips="1" connect="1" arrows="1" fold="1" page="1" pageScale="1" pageWidth="827" pageHeight="1169" math="0" shadow="0">
      <root>
        <mxCell id="0"/>
        <mxCell id="1" parent="0"/>
        <mxCell id="U1DZr8nLX2y_3NI-oWV1-13" style="edgeStyle=orthogonalEdgeStyle;rounded=0;orthogonalLoop=1;jettySize=auto;html=1;" edge="1" parent="1" source="U1DZr8nLX2y_3NI-oWV1-1" target="U1DZr8nLX2y_3NI-oWV1-2">
          <mxGeometry relative="1" as="geometry"/>
        </mxCell>
        <mxCell id="U1DZr8nLX2y_3NI-oWV1-1" value="分区信息录入" style="rounded=1;whiteSpace=wrap;html=1;" vertex="1" parent="1">
          <mxGeometry x="188" y="400" width="120" height="60" as="geometry"/>
        </mxCell>
        <mxCell id="U1DZr8nLX2y_3NI-oWV1-12" style="edgeStyle=orthogonalEdgeStyle;rounded=0;orthogonalLoop=1;jettySize=auto;html=1;" edge="1" parent="1" source="U1DZr8nLX2y_3NI-oWV1-2" target="U1DZr8nLX2y_3NI-oWV1-4">
          <mxGeometry relative="1" as="geometry"/>
        </mxCell>
        <mxCell id="U1DZr8nLX2y_3NI-oWV1-2" value="获取当前登录人的水司编号" style="rounded=0;whiteSpace=wrap;html=1;" vertex="1" parent="1">
          <mxGeometry x="358" y="400" width="120" height="60" as="geometry"/>
        </mxCell>
        <mxCell id="U1DZr8nLX2y_3NI-oWV1-4" value="分区数据库" style="shape=cylinder;whiteSpace=wrap;html=1;boundedLbl=1;backgroundOutline=1;" vertex="1" parent="1">
          <mxGeometry x="548" y="390" width="60" height="80" as="geometry"/>
        </mxCell>
        <mxCell id="U1DZr8nLX2y_3NI-oWV1-11" style="edgeStyle=orthogonalEdgeStyle;rounded=0;orthogonalLoop=1;jettySize=auto;html=1;" edge="1" parent="1" source="U1DZr8nLX2y_3NI-oWV1-6" target="U1DZr8nLX2y_3NI-oWV1-4">
          <mxGeometry relative="1" as="geometry"/>
        </mxCell>
        <mxCell id="U1DZr8nLX2y_3NI-oWV1-6" value="根据当前水司编号过滤" style="rounded=0;whiteSpace=wrap;html=1;" vertex="1" parent="1">
          <mxGeometry x="518" y="290" width="120" height="60" as="geometry"/>
        </mxCell>
        <mxCell id="U1DZr8nLX2y_3NI-oWV1-9" style="edgeStyle=orthogonalEdgeStyle;rounded=0;orthogonalLoop=1;jettySize=auto;html=1;" edge="1" parent="1" source="U1DZr8nLX2y_3NI-oWV1-7" target="U1DZr8nLX2y_3NI-oWV1-8">
          <mxGeometry relative="1" as="geometry"/>
        </mxCell>
        <mxCell id="U1DZr8nLX2y_3NI-oWV1-7" value="泵房保存" style="rounded=1;whiteSpace=wrap;html=1;" vertex="1" parent="1">
          <mxGeometry x="518" y="110" width="120" height="60" as="geometry"/>
        </mxCell>
        <mxCell id="U1DZr8nLX2y_3NI-oWV1-10" style="edgeStyle=orthogonalEdgeStyle;rounded=0;orthogonalLoop=1;jettySize=auto;html=1;entryX=0.5;entryY=0;entryDx=0;entryDy=0;" edge="1" parent="1" source="U1DZr8nLX2y_3NI-oWV1-8" target="U1DZr8nLX2y_3NI-oWV1-6">
          <mxGeometry relative="1" as="geometry"/>
        </mxCell>
        <mxCell id="U1DZr8nLX2y_3NI-oWV1-8" value="选择所属分区" style="rounded=0;whiteSpace=wrap;html=1;" vertex="1" parent="1">
          <mxGeometry x="518" y="200" width="120" height="60" as="geometry"/>
        </mxCell>
      </root>
    </mxGraphModel>
  </diagram>
</mxfile>
